<svg xmlns="http://www.w3.org/2000/svg" viewBox="0 0 64 64" fill="none">
  <!-- Flask -->
  <g transform="translate(8, 2)">
    <!-- Bubbles -->
    <circle cx="22" cy="5" r="2.2" fill="#5d8aa8"/>
    <circle cx="27" cy="9" r="1.5" fill="#5d8aa8"/>
    <circle cx="20" cy="11" r="1.2" fill="#5d8aa8"/>
    
    <!-- Flask body -->
    <path d="M19 14 L19 25 L8 48 Q6 53 10 55 L38 55 Q42 53 40 48 L29 25 L29 14" 
          stroke="#5d8aa8" stroke-width="2.8" stroke-linejoin="round" fill="none"/>
    
    <!-- Flask rim -->
    <line x1="16" y1="14" x2="32" y2="14" stroke="#5d8aa8" stroke-width="2.8" stroke-linecap="round"/>
    
    <!-- Liquid -->
    <path d="M13 42 Q15 38 20 40 Q24 42 27 39 Q30 37 33 39 L37 42 L39 48 Q41 53 37 54 L11 54 Q7 53 9 48 Z" 
          fill="#00bcd4"/>
    
    <!-- Bubbles in liquid -->
    <circle cx="18" cy="48" r="1.5" fill="#00bcd4" opacity="0.5"/>
    <circle cx="24" cy="44" r="1" fill="#00bcd4" opacity="0.5"/>
    <circle cx="28" cy="47" r="1.2" fill="#00bcd4" opacity="0.5"/>
  </g>
</svg>